<?xml version="1.0" standalone="no"?>
<!DOCTYPE svg PUBLIC "-//W3C//DTD SVG 20010904//EN"
 "http://www.w3.org/TR/2001/REC-SVG-20010904/DTD/svg10.dtd">
<svg version="1.0" xmlns="http://www.w3.org/2000/svg"
 width="1120.000000pt" height="1120.000000pt" viewBox="0 0 1120.000000 1120.000000"
 preserveAspectRatio="xMidYMid meet">
<metadata>
Created by potrace 1.14, written by Peter Selinger 2001-2017
</metadata>
<g transform="translate(0.000000,1120.000000) scale(0.100000,-0.100000)"
fill="#000000" stroke="none">
<path d="M5347 10474 c-1 -1 -74 -5 -162 -9 -88 -3 -178 -8 -200 -10 -22 -2
-76 -6 -120 -9 -44 -4 -93 -9 -110 -11 -16 -2 -57 -7 -90 -10 -77 -8 -131 -14
-176 -20 -20 -3 -54 -8 -74 -10 -21 -3 -50 -7 -64 -10 -28 -4 -195 -32 -246
-41 -379 -65 -1000 -252 -1317 -398 -31 -14 -59 -26 -63 -26 -8 0 -334 -163
-393 -196 -188 -108 -370 -223 -491 -312 -88 -65 -255 -196 -280 -220 -9 -10
-43 -39 -74 -65 -75 -64 -290 -279 -358 -358 -30 -35 -62 -72 -73 -84 -10 -11
-37 -45 -60 -75 -22 -30 -43 -57 -46 -60 -27 -24 -130 -174 -276 -400 -74
-115 -223 -416 -295 -597 -47 -116 -154 -429 -164 -478 -2 -11 -17 -72 -33
-135 -17 -63 -33 -133 -36 -155 -4 -22 -9 -48 -12 -57 -6 -19 -4 -11 -37 -183
-14 -71 -28 -152 -32 -180 -3 -27 -8 -59 -10 -70 -2 -11 -7 -42 -10 -70 -3
-27 -8 -68 -10 -90 -36 -277 -41 -937 -10 -1201 2 -21 7 -61 9 -89 9 -83 26
-207 36 -265 5 -30 11 -72 14 -92 5 -31 69 -350 81 -398 149 -623 403 -1171
770 -1655 54 -71 101 -132 104 -135 3 -3 33 -36 65 -75 63 -74 343 -357 411
-415 120 -103 170 -144 275 -221 459 -341 972 -602 1543 -783 55 -17 79 -21
82 -13 2 7 15 55 30 107 14 52 31 109 38 125 6 17 12 32 13 35 0 3 5 16 11 30
6 14 23 54 38 90 150 360 456 724 805 957 89 60 283 163 360 193 30 11 64 25
75 29 105 47 364 113 494 127 25 2 62 7 81 10 61 10 352 12 430 3 41 -4 95
-10 120 -13 220 -24 519 -119 735 -232 78 -41 199 -113 230 -136 6 -4 53 -40
105 -80 121 -91 314 -286 406 -408 182 -243 322 -534 384 -797 6 -29 15 -53
19 -53 14 0 252 80 366 123 297 112 661 287 889 430 230 143 456 308 646 472
69 60 358 352 421 425 147 172 300 384 418 580 65 107 222 409 255 490 80 200
104 263 146 390 83 249 156 557 205 860 3 19 8 49 11 65 2 17 6 41 9 55 2 14
7 52 10 85 4 33 8 71 10 85 1 14 6 64 10 110 4 47 9 88 12 93 2 4 -4 7 -14 8
-98 4 -3364 1 -3369 -3 -3 -4 -8 -21 -10 -40 -17 -110 -71 -304 -121 -428
-259 -647 -796 -1129 -1477 -1325 -49 -14 -103 -28 -120 -30 -17 -3 -51 -10
-76 -15 -184 -39 -572 -47 -737 -16 -10 2 -58 11 -108 21 -355 65 -728 242
-1010 478 -148 124 -395 403 -438 494 -6 13 -14 23 -19 23 -4 0 -8 5 -8 10 0
6 -15 34 -33 63 -96 152 -190 392 -242 612 -41 175 -49 260 -50 485 0 193 6
281 30 402 143 743 636 1349 1331 1641 155 65 342 120 474 141 19 3 51 8 70
11 137 21 423 27 575 11 53 -6 83 -11 200 -32 17 -3 48 -10 70 -16 22 -5 50
-12 62 -14 42 -8 228 -72 313 -109 488 -209 888 -589 1121 -1065 76 -155 133
-314 169 -467 l12 -53 86 0 c71 -1 2959 0 3239 0 l83 0 -5 73 c-7 94 -16 194
-20 215 -1 9 -6 49 -9 87 -4 39 -9 77 -11 85 -2 8 -6 33 -9 55 -3 22 -8 58
-12 80 -12 82 -87 444 -116 555 -209 816 -631 1532 -1228 2085 -218 201 -340
296 -620 480 -394 259 -890 487 -1360 625 -41 12 -86 26 -100 31 -131 45 -694
166 -855 184 -27 3 -61 8 -75 10 -31 6 -70 11 -190 25 -52 6 -108 13 -125 15
-16 2 -73 7 -125 10 -52 3 -108 8 -125 10 -70 11 -857 28 -868 19z"/>
</g>
</svg>
